<svg xmlns="http://www.w3.org/2000/svg" xmlns:svg="http://www.w3.org/2000/svg" id="svg2985" width="480" height="480" version="1.1"><title id="title3771">Black Knight</title><metadata id="metadata2990"/><g id="layer1"><path id="text3281" d="m 148.96875,49.96875 c -1.0795,2.159002 -1.625,4.332498 -1.625,7.03125 0,8.636007 5.40625,19.403743 5.40625,27.5 0,5.937255 -1.0655,11.343995 -4.84375,17.28125 -11.87451,19.43102 -35.61999,11.33024 -51.8125,28.0625 C 72.344731,154.13252 68.007765,174.64323 49.65625,203.25 39.400992,219.98226 22.6875,225.93548 22.6875,245.90625 30.783757,257.24101 40.486241,272.341 51.28125,274.5 c 16.192513,0 17.279479,-21.59375 43.1875,-21.59375 8.63601,0 16.71624,2.15625 24.8125,2.15625 30.76577,0 26.98098,-30.21875 48.03125,-30.21875 9.71551,0 16.75,10.24474 16.75,20.5 0,20.51052 -22.12549,28.62298 -34,48.59375 -14.57326,24.82852 -21.60274,34.53822 -32.9375,65.84375 37.78253,-18.89127 80.41647,-28.59375 121.4375,-28.59375 41.02103,0.53975 83.68622,9.70248 121.46875,28.59375 -0.53975,-26.98752 -4.34375,-44.26474 -4.34375,-57.21875 0,-24.28877 1.625,-48.03174 1.625,-59.90625 0,-46.41854 -15.10947,-70.15173 -51.8125,-98.21875 C 275.81373,121.76798 247.74003,116.36277 212.65625,95.3125 186.74823,79.659737 173.79727,67.780514 148.96875,49.96875 z M 123.0625,151.4375 c 9.17576,0 16.1875,7.56574 16.1875,17.28125 0,9.71551 -7.01174,17.28125 -16.1875,17.28125 -9.17576,0 -16.1875,-7.56574 -16.1875,-17.28125 0,-9.71551 7.01174,-17.28125 16.1875,-17.28125 z m 115.5,235.34375 c -77.72406,0 -145.734715,29.14671 -188.375,73.40625 l 380,0 C 387.54722,415.92796 316.28656,386.78125 238.5625,386.78125 z" style="font-size:539.75097656px;font-style:normal;font-variant:normal;font-weight:700;font-stretch:normal;text-align:start;line-height:125%;letter-spacing:0;word-spacing:0;writing-mode:lr-tb;text-anchor:start;fill:#000;fill-opacity:1;stroke:none;font-family:chess;-inkscape-font-specification:chess Bold"/></g></svg>