<svg xmlns="http://www.w3.org/2000/svg" width="480" height="480">
   <path
      d="m155.25 69.469-4.406 6.375c-1.963 3.435-2.438 7.367-2.438 10.312 0 7.853 4.906 20.614 4.906 25.031 0 5.89-1.965 9.819-3.437 11.782-8.835 14.724-29.469 7.353-46.156 24.531-22.087 22.577-27.973 43.67-43.188 67.719-8.343 13.252-25.5 21.123-25.5 42.719v2.437c7.853 10.307 16.67 28.483 32.375 30.938h1c20.123 0 16.673-18.644 39.25-19.625h.969c6.38 0 15.213 1.937 21.594 1.937 26.994 0 31.437-22.083 39.781-26.5.982-.49 1.956-.969 2.938-.969 3.926 0 8.843 3.429 8.843 11.281 0 14.725-18.649 20.618-29.937 40.25-12.761 22.087-20.13 32.387-30.438 61.344l-6.375 17.188 16.688-8.344c33.865-17.178 70.649-25.031 106.969-25.031 37.3 0 74.115 8.344 107 25.031L357 373.75l-.5-12.25c-.49-25.031-3.938-41.724-3.938-52.031 0-22.087 1.47-43.671 1.47-54.469 0-44.173-14.234-67.734-50.063-95.219-28.467-22.086-52.022-25.524-84.906-45.156-23.068-13.743-34.339-24.553-57.407-40.75l-6.406-4.406zm9.344 25.031c15.215 11.78 26.992 21.096 46.625 32.875 33.375 20.123 56.943 23.574 83.937 44.188 30.921 23.558 44.156 42.7 44.156 83.437 0 10.798-1.468 32.382-1.468 54.469 0 10.798 2.456 23.072 3.437 40.25-32.884-14.234-67.746-21.594-102.594-21.594-32.884 0-65.744 6.364-97.156 19.125 6.872-15.706 12.756-24.05 23.063-41.719 9.816-16.687 31.906-26.007 31.906-48.094-1.472-23.067-17.686-26-22.594-26-25.03.982-20.129 27.47-43.687 27.47-6.38 0-12.741-1.97-20.594-1.97h-1.969c-27.976.982-30.419 19.657-37.781 19.657-3.926 0-9.327-5.42-20.125-21.125.982-12.761 13.256-16.179 23.563-32.375 17.178-26.995 21.095-45.168 41.218-65.781 12.761-13.252 35.333-5.396 48.094-26.5 4.908-8.344 5.406-15.699 5.406-19.625 0-4.418-1.965-11.29-3.437-16.688zm-30.938 77.531c-8.343 0-14.719 6.884-14.719 15.719 0 8.835 6.376 15.719 14.72 15.719 8.343 0 14.75-6.884 14.75-15.719 0-8.835-6.407-15.719-14.75-15.719zm105.031 206.625c-72.639 0-136.44 27.5-176.687 69.219l-11.781 12.281h379.906l-11.781-12.281c-40.246-42.21-107.017-69.219-179.656-69.219zm0 14.75c61.351 0 117.802 20.589 155.594 52H86.062c37.302-31.411 91.275-52 152.625-52z"
      style="font-size:490.8074646px;font-style:normal;font-variant:normal;font-weight:700;font-stretch:normal;text-align:start;line-height:125%;letter-spacing:0;word-spacing:0;writing-mode:lr-tb;text-anchor:start;fill:#324055;fill-opacity:1;stroke:none;font-family:chess;-inkscape-font-specification:chess Bold" />
   <path
      style="color:#000;fill:#eb5951;fill-opacity:1;fill-rule:nonzero;stroke:#eb5951;stroke-width:2.54237294;stroke-linecap:round;stroke-linejoin:round;stroke-miterlimit:4;stroke-opacity:1;stroke-dasharray:none;stroke-dashoffset:0;marker:none;visibility:visible;display:inline;overflow:visible;enable-background:accumulate"
      d="M334.526 346.677c-17.495-7.296-43.883-14.177-64.068-16.708-20.247-2.538-43.703-2.543-63.814-.013-20.01 2.518-39.59 7.415-59.69 14.929-2.346.877-4.366 1.495-4.488 1.373-.935-.936 22.148-41.183 26.7-46.554 1.317-1.553 6.2-6.758 10.852-11.567 9.379-9.696 12.447-13.864 14.8-20.105 1.417-3.756 1.589-4.805 1.608-9.8.034-8.72-2.16-14.894-7.154-20.13-6.59-6.908-16.582-8.694-25.453-4.55-4.038 1.887-7.444 5.077-12.234 11.46-4.715 6.283-6.833 8.54-9.771 10.406-4.924 3.128-10.765 3.757-21.14 2.276-11.484-1.64-21.441-.873-29.084 2.237-4.881 1.987-7.805 4.125-13.335 9.752-6.06 6.165-7.043 6.823-9.504 6.361-2.54-.476-7.736-5.723-13.809-13.94-5.423-7.341-5.53-7.83-2.878-13.132 1.406-2.81 3.445-5.291 9.788-11.915 10.518-10.981 14.141-16.5 27.33-41.621 9.685-18.45 15.943-27.769 24.584-36.61 5.505-5.633 8.501-7.133 21.212-10.627 10.362-2.848 12.528-3.63 16.497-5.956 7.378-4.325 12.342-10.983 15.324-20.554 1.719-5.516 1.635-14.096-.204-20.824-.725-2.653-1.232-4.91-1.126-5.016.106-.106 2.206 1.389 4.667 3.322 11.22 8.812 24.397 18.118 35.237 24.884 13.905 8.679 24.007 13.847 49.068 25.103 21.22 9.531 31.717 15.653 45 26.245 26.932 21.476 36.995 39.233 39.224 69.217.48 6.453.479 11.773-.005 24.407-1.47 38.433-1.429 41.416.907 64.714 1.453 14.493 1.497 15.26.859 15.208-.309-.025-2.964-1.047-5.9-2.272h0zM140.219 202.001c5.78-2.89 8.502-8.062 8.1-15.396-.33-6.006-2.698-10.128-7.402-12.885-1.867-1.094-3.134-1.4-6.549-1.579-3.807-.2-4.513-.085-7.003 1.133-3.044 1.49-5.293 3.757-6.992 7.049-1.319 2.556-1.852 9.171-.994 12.346 1.18 4.372 5.23 8.767 9.469 10.278.839.3 3.033.562 4.876.584 2.777.033 3.89-.229 6.495-1.53h0zM91.26 441.667c27.926-22.054 64.082-37.568 102.927-44.166 17.354-2.948 22.781-3.352 44.746-3.338 21.467.015 26.567.379 43.22 3.084 40.352 6.556 77.835 22.09 106.476 44.128l5.035 3.874H86.724l4.536-3.582z" />
</svg>