<svg xmlns="http://www.w3.org/2000/svg" xmlns:svg="http://www.w3.org/2000/svg" id="svg3125" width="480" height="480" version="1.1"><title id="title3827">Black Pawn</title><metadata id="metadata3130"/><g id="layer1" transform="translate(0,-572.36218)"><path id="text3135" d="m 238.375,92.9375 c -39.94314,0 -72.3125,32.40061 -72.3125,72.34375 0,39.94314 32.36936,72.34375 72.3125,72.34375 39.94314,0 72.34375,-32.40061 72.34375,-72.34375 0,-39.94314 -32.40061,-72.34375 -72.34375,-72.34375 z m 0.5625,175.4375 c -30.22725,0 -76.65344,46.97731 -108.5,82.0625 C 171.46018,338.56251 195.75572,331 238.9375,331 c 43.18177,0 67.98584,7.01422 108.46875,19.96875 C 314.48015,315.34379 274.02269,268.375 238.9375,268.375 z M 238.375,386.59375 C 160.64781,386.59375 92.642,415.73868 50,460 l 380,0 C 387.358,415.73868 316.10219,386.59375 238.375,386.59375 z" transform="translate(0,572.36218)" style="font-size:596.59088135px;font-style:normal;font-variant:normal;font-weight:700;font-stretch:normal;text-align:start;line-height:125%;letter-spacing:0;word-spacing:0;writing-mode:lr-tb;text-anchor:start;fill:#000;fill-opacity:1;stroke:none;font-family:chess;-inkscape-font-specification:chess Bold"/></g></svg>