<svg xmlns="http://www.w3.org/2000/svg" xmlns:svg="http://www.w3.org/2000/svg" id="svg2985" width="480" height="480" version="1.1"><title id="title3883">Black Queenie</title><metadata id="metadata2990"/><g id="layer1"><path id="text3432" d="m 183.1875,76 c -16.72674,0 -30.21875,14.569113 -30.21875,32.375 0,17.80589 13.49201,32.375 30.21875,32.375 16.72674,0 30.21875,-14.56911 30.21875,-32.375 C 213.40625,90.569113 199.91424,76 183.1875,76 z M 293.25,76 c -16.72674,0 -30.21875,14.569113 -30.21875,32.375 0,17.80589 13.49201,32.375 30.21875,32.375 16.72674,0 30.21875,-14.56911 30.21875,-32.375 C 323.46875,90.569113 309.97674,76 293.25,76 z M 53.6875,146.15625 c -16.726742,0 -30.21875,14.56911 -30.21875,32.375 0,17.80589 13.492008,32.375 30.21875,32.375 16.726742,0 30.21875,-14.56911 30.21875,-32.375 0,-17.80589 -13.492008,-32.375 -30.21875,-32.375 z m 369.0625,0 c -16.72674,0 -30.21875,14.56911 -30.21875,32.375 0,17.80589 13.49201,32.375 30.21875,32.375 16.72674,0 30.21875,-14.56911 30.21875,-32.375 0,-17.80589 -13.49201,-32.375 -30.21875,-32.375 z M 187.5,153.6875 c -5.9353,99.28131 -19.42526,123.03125 -32.375,123.03125 -18.88503,0 -55.5776,-30.7651 -80.9375,-56.125 14.028881,43.16579 26.96875,87.9531 26.96875,137.59375 l 0,12.4375 c 50.7198,-24.82033 81.48655,-36.71875 137.0625,-36.71875 55.57595,0 86.3427,11.89842 137.0625,36.71875 l 0,-12.4375 c 0,-49.64065 12.93987,-94.42796 26.96875,-137.59375 -25.3599,25.3599 -62.05247,56.125 -80.9375,56.125 -12.94974,0 -26.4397,-23.21037 -32.375,-123.03125 -26.97862,57.19467 -23.74013,86.34375 -50.71875,86.34375 -22.66204,0 -23.74013,-29.14908 -50.71875,-86.34375 z m 50.71875,233.09375 c -77.69842,0 -145.686285,29.16132 -188.3125,73.40625 l 379.84375,0 C 387.12379,415.94257 315.91717,386.78125 238.21875,386.78125 z" style="font-size:539.57287598px;font-style:normal;font-variant:normal;font-weight:700;font-stretch:normal;text-align:start;line-height:125%;letter-spacing:0;word-spacing:0;writing-mode:lr-tb;text-anchor:start;fill:#000;fill-opacity:1;stroke:none;font-family:chess;-inkscape-font-specification:chess Bold"/></g></svg>