<svg xmlns="http://www.w3.org/2000/svg" xmlns:svg="http://www.w3.org/2000/svg" id="svg2985" width="480" height="480" version="1.1"><title id="title3932">Black Rook</title><metadata id="metadata2990"/><g id="layer1"><path id="text3384" d="m 238.375,69.21875 c -32.38633,0 -36.14492,49.09375 -68.53125,49.09375 -18.89203,0 -27.01139,-25.34375 -48.0625,-25.34375 -10.79544,0 -18.875,10.24433 -18.875,20.5 0,8.63635 2.69607,50.73015 43.71875,89.59375 26.44884,-8.63635 57.74435,-14.03125 91.75,-14.03125 34.00565,0 65.33241,5.3949 91.78125,14.03125 41.56246,-44.80109 43.71875,-84.19603 43.71875,-89.59375 0,-10.25567 -8.11081,-20.5 -18.90625,-20.5 -21.05111,0 -29.13922,25.34375 -48.03125,25.34375 -32.38633,0 -36.17617,-49.09375 -68.5625,-49.09375 z m -6.15625,166.25 c -30.60335,0.25302 -59.12254,2.42046 -82.90625,6.46875 0,23.74998 -4.85229,58.30119 -22.125,114.4375 C 162.81246,339.64206 199.5114,331 238.375,331 c 41.02268,0 83.6847,9.70172 121.46875,28.59375 -26.44884,-62.61357 -29.71023,-99.31252 -30.25,-117.125 -25.90906,-4.31818 -57.2131,-7 -91.21875,-7 -2.05788,0 -4.11603,-0.0169 -6.15625,0 z m 6.15625,151.125 C 160.64781,386.59375 92.642001,415.73868 50,460 l 380,0 C 387.358,415.73868 316.10219,386.59375 238.375,386.59375 z" style="font-size:539.77270508px;font-style:normal;font-variant:normal;font-weight:700;font-stretch:normal;text-align:start;line-height:125%;letter-spacing:0;word-spacing:0;writing-mode:lr-tb;text-anchor:start;fill:#000;fill-opacity:1;stroke:none;font-family:chess;-inkscape-font-specification:chess Bold"/></g></svg>