<svg xmlns="http://www.w3.org/2000/svg" width="480" height="480">
   <path
      d="M188.656 95.844c-19.637 0-34.875 16.716-34.875 36.844 0 18.654 13.742 34.848 31.906 36.812 0 1.964-4.397 89.35-19.125 106.531-1.963 2.455-3.437 2.438-3.437 2.438-19.637 0-70.706-51.05-71.688-52.031 8.837-6.873 14.25-17.665 14.25-29.938 0-20.128-15.238-36.813-34.874-36.813-19.637 0-34.844 16.685-34.844 36.813 0 20.128 15.207 36.813 34.843 36.813 3.437 0 6.899-.487 9.844-1.47 12.273 33.383 26.5 82.47 26.5 128.126 0 2.454-.509 4.907-1 23.562 49.092-25.528 81.507-38.281 132.563-38.281 50.564 0 82.98 12.263 132.562 38.281-.49-7.854-1-15.23-1-22.594 0-47.619 12.754-88.838 26.5-129.093 2.946.982 6.408 1.469 9.844 1.469 19.637 0 34.844-16.685 34.844-36.813 0-20.128-15.207-36.813-34.844-36.813S371.75 176.373 371.75 196.5c0 12.273 5.413 23.065 14.25 29.938-.49.49-51.56 52.03-71.688 52.03-16.2 0-21.58-102.586-22.562-108.968 18.164-1.964 31.906-18.158 31.906-36.813 0-20.127-15.238-36.843-34.875-36.843s-34.844 16.716-34.844 36.844c0 16.69 10.804 30.925 25.532 35.343-19.146 51.056-28.981 76.094-39.781 76.094-10.8 0-21.592-25.038-41.72-76.094 14.728-4.418 25.532-18.652 25.532-35.344 0-20.127-15.207-36.843-34.844-36.843zm-1.031 14.75c.334-.018.694 0 1.031 0 10.8 0 20.125 9.33 20.125 22.094 0 12.763-9.325 22.062-20.125 22.062s-20.125-9.299-20.125-22.063c0-12.365 8.728-21.534 19.094-22.093zm100.156 0c.335-.018.663 0 1 0 10.8 0 20.125 9.33 20.125 22.094 0 12.763-9.325 22.062-20.125 22.062s-20.125-9.299-20.125-22.063c0-12.365 8.76-21.534 19.125-22.093zM70.812 174.406c10.8 0 20.126 9.33 20.126 22.094 0 12.764-9.325 22.094-20.126 22.094-10.8 0-20.124-9.33-20.124-22.094 0-12.764 9.324-22.094 20.124-22.094zm335.813 0c10.8 0 20.125 9.33 20.125 22.094 0 12.764-9.325 22.094-20.125 22.094S386.5 209.264 386.5 196.5c0-12.764 9.325-22.094 20.125-22.094zm-208.656 29.938c14.236 35.346 19.15 55.469 40.75 55.469 24.546 0 27.995-20.114 41.25-54.97 3.436 39.765 9.315 68.237 19.625 81 3.927 4.419 8.827 7.376 14.719 7.376 16.2 0 39.782-17.675 58.437-33.875-9.327 31.419-16.688 64.288-16.688 100.125-41.237-19.637-70.215-28.969-117.343-28.969-47.129 0-76.107 9.332-117.344 28.969 0-35.837-7.36-68.706-16.688-100.125 18.655 16.2 42.238 33.875 58.438 33.875 2.946 0 8.828-.511 14.719-7.875 9.327-11.291 15.706-36.817 20.125-81zm40.75 174.281c-112.912 0-166.409 58.918-188.5 81.5h379.969c-6.382-6.382-65.303-81.5-191.47-81.5zm0 14.719c61.365 0 117.824 20.612 155.625 52.031H86.03c37.31-31.419 91.323-52.031 152.688-52.031z"
      style="font-size:490.92010498px;font-style:normal;font-variant:normal;font-weight:700;font-stretch:normal;text-align:start;line-height:125%;letter-spacing:0;word-spacing:0;writing-mode:lr-tb;text-anchor:start;fill:#324055;fill-opacity:1;stroke:none;font-family:chess;-inkscape-font-specification:chess Bold" />
   <path
      style="color:#000;fill:#5ab4c7;fill-opacity:1;fill-rule:nonzero;stroke:#5ab4c7;stroke-width:5.08474588;stroke-linecap:round;stroke-linejoin:round;stroke-miterlimit:4;stroke-opacity:1;stroke-dasharray:none;stroke-dashoffset:0;marker:none;visibility:visible;display:inline;overflow:visible;enable-background:accumulate"
      d="M88.628 444.206c3.394-2.995 14.41-10.805 21.411-15.181 74.575-46.61 184.014-46.363 260.741.588 6.516 3.987 17.559 11.736 20.797 14.593.531.469-67.632.852-151.475.852-83.842 0-152.006-.383-151.474-.852zm32.989-92.642c-.027-18.577-5.519-53.049-12.328-77.389-1.695-6.06-2.832-11.268-2.527-11.573.305-.305 3.203 1.724 6.44 4.51 7.138 6.145 23.865 17.62 30.83 21.149 7.307 3.702 16.685 5.893 21.885 5.114 13.725-2.058 23.616-23.048 28.984-61.506a8507.536 8507.536 0 0 1 2.787-19.833l.72-5.023 4.987 12.65c9.558 24.241 15.384 33.69 23.247 37.702 5.838 2.978 14.298 3.553 21.493 1.462 11.157-3.244 17.143-11.982 27.199-39.703l4.415-12.172 1.685 15.263c4.782 43.304 13.072 64.907 26.941 70.204 10.81 4.128 28.074-3.379 53.062-23.073 4.859-3.83 8.984-6.53 9.167-6.001.183.53-.809 4.975-2.205 9.88-6.245 21.948-11.158 50.612-12.465 72.731-.389 6.572-.894 11.95-1.124 11.95-.23 0-5.998-2.457-12.817-5.46-36.57-16.101-57.209-20.794-95.43-21.696-33.348-.788-53.205 1.509-77.647 8.982-11.179 3.417-32.29 11.719-41.44 16.295l-5.848 2.925-.011-7.388h0zm62.822-198.061c-8.955-2.696-15.015-11.112-15.015-20.852 0-13.41 11.862-23.951 23.442-20.833 8.621 2.321 15.158 11.305 15.158 20.833 0 9.42-6.478 18.44-14.928 20.787-4.37 1.213-4.833 1.217-8.657.065h0zm98.502-.448c-7.998-2.918-13.87-11.757-13.846-20.84.005-1.997 1.085-5.938 2.397-8.758 8.53-18.317 31.634-15.365 36.124 4.616 3.47 15.44-10.914 30.003-24.675 24.982zm115.805 62.967c-12.81-6.434-15.511-24.398-5.217-34.692 9.147-9.147 21.616-8.07 28.591 2.47 9.3 14.054.427 33.78-15.187 33.76-2.825-.003-6.509-.695-8.187-1.538zm-335.593.103c-10.503-4.688-14.691-18.586-9.027-29.952 6.797-13.641 23.485-14.934 32.245-2.5 3.448 4.896 4.705 14.134 2.735 20.104-1.605 4.863-6.693 10.656-10.904 12.416-4.15 1.733-11.083 1.702-15.049-.068z" />
</svg>