<svg xmlns="http://www.w3.org/2000/svg" width="480" height="480">
   <path
      d="M238.531 89.813c-33.876 0-38.287 44.687-62.344 44.687-13.255 0-21.134-23.094-43.718-23.094-14.729 0-24.531 12.776-24.531 26.031 0 8.838 2.442 49.594 41.718 86.907l3.438 2.937 3.937-1.469c23.075-7.855 51.552-12.28 81.5-12.28 29.949 0 58.425 4.425 81.5 12.28l4.406 1.47 2.938-3.438c39.276-42.222 41.75-80.024 41.75-86.406 0-13.256-9.834-26.032-24.563-26.032-22.583 0-30.431 23.094-43.687 23.094-24.057 0-28.468-44.688-62.344-44.688zm0 14.718c24.057 0 28.468 44.688 62.344 44.688 21.111 0 28.468-23.063 43.688-23.063 5.891 0 9.843 6.863 9.843 11.281 0 3.437-.99 35.353-34.375 73.157-24.057-7.365-51.551-11.781-81.5-11.781-29.948 0-57.443 4.416-81.5 11.78-32.403-32.402-34.375-66.773-34.375-73.155 0-4.42 3.921-11.282 9.813-11.282 15.22 0 22.607 23.063 43.719 23.063 33.875 0 38.286-44.688 62.343-44.688zm0 136.5c-30.439 0-58.434 1.948-82 5.875l-6.375 1v6.375c0 20.62-3.914 51.557-19.625 102.125l-4.937 15.719 14.75-6.875c31.42-14.729 63.82-22.594 98.187-22.594 36.331 0 73.647 8.339 107.031 25.031l18.157 9.344-7.844-18.656c-23.566-56.46-26.509-88.383-27-104.094v-5.906l-5.906-.969c-24.057-3.927-53.017-6.375-84.438-6.375zm0 14.719c27.985 0 54.001 1.97 76.094 5.406.982 16.693 4.914 44.175 20.625 85.906-30.93-12.764-64.316-19.125-96.719-19.125-30.93 0-60.377 5.865-89.344 17.157 10.802-38.786 15.197-64.8 15.688-84.438 21.602-2.945 46.654-4.906 73.656-4.906zm0 122.75c-72.661 0-136.491 27.488-176.75 69.219L50 460h380l-11.781-12.281C377.96 405.497 311.193 378.5 238.53 378.5zm0 14.719c61.37 0 117.822 20.61 155.625 52.031H85.844c37.312-31.421 91.318-52.031 152.687-52.031z"
      style="font-size:490.95608521px;font-style:normal;font-variant:normal;font-weight:700;font-stretch:normal;text-align:start;line-height:125%;letter-spacing:0;word-spacing:0;writing-mode:lr-tb;text-anchor:start;fill:#324055;fill-opacity:1;stroke:none;font-family:chess;-inkscape-font-specification:chess Bold" />
   <path
      style="color:#000;fill:#5ab4c7;fill-opacity:1;fill-rule:nonzero;stroke:#5ab4c7;stroke-width:3.59545827;stroke-linecap:round;stroke-linejoin:round;stroke-miterlimit:4;stroke-opacity:1;stroke-dasharray:none;stroke-dashoffset:0;marker:none;visibility:visible;display:inline;overflow:visible;enable-background:accumulate"
      d="M87.615 444.3c28.682-22.563 58.572-36.619 95.085-44.712 66.29-14.694 141.189-1.658 194.674 33.882 3.758 2.497 8.912 6.162 11.456 8.145l4.624 3.606-153.476-.022c-120.778-.018-153.24-.21-152.363-.9zm232.232-103.125c-53.438-18.08-107.79-18.082-160.894-.006-4.6 1.566-8.485 2.723-8.636 2.573-.15-.15 1.203-6.05 3.008-13.108 6.396-25.023 10.277-46.52 11.61-64.315l.408-5.457 11.275-1.206c6.202-.663 15.482-1.597 20.624-2.075 12.992-1.208 68.686-1.18 83.055.043 16.504 1.405 33.306 3.65 33.846 4.523.26.422.691 3.652.958 7.18 1.3 17.225 7.954 44.79 16.89 69.968 1.249 3.518 2.182 6.447 2.074 6.51-.108.063-6.506-2.02-14.218-4.63h0zM152.219 204.641c-16.204-17.499-28.757-45.809-28.902-65.177-.06-7.996 3.5-12.584 9.76-12.584 4.506 0 9.121 2.632 17.598 10.037 11.51 10.056 16.297 12.354 25.713 12.343 14.29-.016 21.966-5.305 38.223-26.335 11.017-14.253 15.729-17.762 23.85-17.762 8.38 0 13.486 3.868 25.029 18.96 4.296 5.618 9.27 11.71 11.05 13.538 7.597 7.793 16.174 11.583 26.251 11.597 9.318.014 14.207-2.39 26.235-12.895 3.764-3.288 8.37-6.766 10.235-7.73 9.038-4.671 16.628.302 16.471 10.793-.263 17.54-13.02 45.685-29.885 65.934l-3.976 4.774-5.944-1.732c-8.494-2.474-28.695-6.448-40.461-7.96-14.452-1.856-55.325-1.854-69.752.004-11.963 1.54-32.147 5.503-40.463 7.944l-5.946 1.745-5.086-5.493h0z" />
</svg>